<svg xmlns="http://www.w3.org/2000/svg" width="82.919" height="48" viewBox="0 0 82.919 48"><g transform="translate(-1268.981 -741.999)"><path d="M114.727,48H52V39.272h4.364v4.364h54.545V4.364H56.364V8.727H52V0h62.727V48h0Z" transform="translate(1237.173 741.999)" fill="#9a6cb9"/><path d="M14.454-44.8v7.914A5.936,5.936,0,0,0,9.5-39.116c-4.095,0-7.456,3.514-7.456,8.067S5.409-22.982,9.5-22.982a5.936,5.936,0,0,0,4.95-2.231v1.8H18.4V-44.8ZM10.237-26.741A4.108,4.108,0,0,1,5.99-31.049a4.108,4.108,0,0,1,4.247-4.309,4.1,4.1,0,0,1,4.217,4.309A4.1,4.1,0,0,1,10.237-26.741ZM35.111-34.5a5.294,5.294,0,0,0,2.017-4.278c0-3.575-2.9-6.02-6.509-6.02H22.185v21.39h9.076c3.7,0,6.661-2.536,6.661-6.2A5.421,5.421,0,0,0,35.111-34.5Zm-4.492-6.356a2.248,2.248,0,0,1,2.292,2.353,2.266,2.266,0,0,1-2.292,2.353H26.4v-4.706Zm.642,13.506H26.4v-5.042h4.859a2.417,2.417,0,0,1,2.475,2.506A2.424,2.424,0,0,1,31.261-27.352Zm16.745,4.37a8.008,8.008,0,0,0,8.1-8.067,8.008,8.008,0,0,0-8.1-8.067,7.983,7.983,0,0,0-8.067,8.067A7.983,7.983,0,0,0,48.006-22.982Zm0-3.85a4.056,4.056,0,0,1-4.125-4.217,4.056,4.056,0,0,1,4.125-4.217,4.063,4.063,0,0,1,4.156,4.217A4.063,4.063,0,0,1,48.006-26.832ZM71.9-23.41,66.31-31.233l5.348-7.456H67.135L64.049-34.38l-3.086-4.309H56.409L61.757-31.2,56.165-23.41h4.553l3.331-4.645,3.3,4.645Z" transform="translate(1266.933 799.973)" fill="#fff"/></g></svg>